<svg width="11" height="20" viewBox="0 0 11 20" fill="none" xmlns="http://www.w3.org/2000/svg">
<path d="M9.83736 19.0618C9.74866 19.0618 9.66082 19.0443 9.57885 19.0101C9.49689 18.976 9.42241 18.9259 9.35967 18.8628L1.03538 10.4809C0.908771 10.3534 0.837646 10.1804 0.837646 10.0001C0.837646 9.81982 0.908771 9.6469 1.03538 9.51938L9.35967 1.13749C9.42237 1.07433 9.49681 1.02422 9.57875 0.990028C9.66068 0.955834 9.74851 0.938223 9.8372 0.938202C9.9259 0.938181 10.0137 0.95575 10.0957 0.989905C10.1776 1.02406 10.2521 1.07413 10.3148 1.13727C10.3776 1.2004 10.4273 1.27535 10.4613 1.35785C10.4953 1.44035 10.5127 1.52878 10.5128 1.61808C10.5128 1.70738 10.4953 1.79582 10.4614 1.87833C10.4275 1.96085 10.3778 2.03582 10.3151 2.09899L2.46801 9.9999L10.3151 17.9008C10.4096 17.9959 10.4739 18.1171 10.5 18.2491C10.5261 18.381 10.5127 18.5178 10.4616 18.6421C10.4104 18.7663 10.3238 18.8726 10.2127 18.9473C10.1016 19.022 9.97098 19.0618 9.83736 19.0618Z" fill="#050336"/>
</svg>
