<svg width="20" height="14" viewBox="0 0 20 14" fill="none" xmlns="http://www.w3.org/2000/svg">
<path fill-rule="evenodd" clip-rule="evenodd" d="M17.71 14H2.28969C1.39329 14 0.666504 13.2625 0.666504 12.3529V3.29412C0.666504 2.38453 1.39329 1.64706 2.28969 1.64706H2.69549C2.69549 1.19247 3.05908 0.823529 3.50708 0.823529H4.31868C4.76668 0.823529 5.13027 1.19247 5.13027 1.64706H5.94187C5.94187 1.64706 6.39839 1.59559 6.75346 1.23529L7.56505 0.411765C7.56505 0.411765 7.88198 0 8.37665 0H11.623C12.1554 0 12.4346 0.411765 12.4346 0.411765L13.2462 1.23529C13.6013 1.59559 14.0578 1.64706 14.0578 1.64706H17.71C18.6064 1.64706 19.3332 2.38453 19.3332 3.29412V12.3529C19.3332 13.2625 18.6064 14 17.71 14ZM18.5216 3.29412C18.5216 2.83953 18.158 2.47059 17.71 2.47059L13.9681 2.46524C13.8444 2.45165 13.2016 2.35447 12.6724 1.81753L11.8081 0.940471L11.7659 0.878294C11.7659 0.878294 11.7026 0.823529 11.623 0.823529H8.37665C8.31456 0.823529 8.22447 0.896824 8.20459 0.918647L8.17416 0.958176L7.32726 1.81712C6.79769 2.35447 6.15491 2.45124 6.03155 2.46482L4.34708 2.46729C4.33734 2.46812 4.32801 2.47059 4.31868 2.47059H3.50708C3.5014 2.47059 3.49653 2.46894 3.49085 2.46894L2.28969 2.47059C1.84169 2.47059 1.4781 2.83953 1.4781 3.29412V12.3529C1.4781 12.8075 1.84169 13.1765 2.28969 13.1765H17.71C18.158 13.1765 18.5216 12.8075 18.5216 12.3529V3.29412ZM9.99984 12.3529C7.53462 12.3529 5.53607 10.325 5.53607 7.82353C5.53607 5.32206 7.53462 3.29412 9.99984 3.29412C12.4651 3.29412 14.4636 5.32206 14.4636 7.82353C14.4636 10.325 12.4651 12.3529 9.99984 12.3529ZM9.99984 4.11765C7.98262 4.11765 6.34766 5.77665 6.34766 7.82353C6.34766 9.87041 7.98262 11.5294 9.99984 11.5294C12.0171 11.5294 13.652 9.87041 13.652 7.82353C13.652 5.77665 12.0171 4.11765 9.99984 4.11765ZM9.99984 9.88235C8.87903 9.88235 7.97085 8.96082 7.97085 7.82353C7.97085 6.68624 8.87903 5.76471 9.99984 5.76471C11.1206 5.76471 12.0288 6.68624 12.0288 7.82353C12.0288 8.96082 11.1206 9.88235 9.99984 9.88235ZM9.99984 6.58824C9.32784 6.58824 8.78245 7.14165 8.78245 7.82353C8.78245 8.50582 9.32784 9.05882 9.99984 9.05882C10.6722 9.05882 11.2172 8.50582 11.2172 7.82353C11.2172 7.14165 10.6722 6.58824 9.99984 6.58824ZM4.31868 4.94118H2.69549C2.47108 4.94118 2.28969 4.75712 2.28969 4.52941V3.70588C2.28969 3.47859 2.47108 3.29412 2.69549 3.29412H4.31868C4.54308 3.29412 4.72447 3.47859 4.72447 3.70588V4.52941C4.72447 4.75712 4.54308 4.94118 4.31868 4.94118Z" fill="#787586"/>
</svg>
