<svg width="19" height="20" viewBox="0 0 19 20" fill="none" xmlns="http://www.w3.org/2000/svg">
<path d="M1.84631 11.9219V19.6481C1.84631 19.8421 2.00479 20 2.20046 20H10.5467V13.004H14.4674V20H16.7996C16.9957 20 17.1538 19.8421 17.1538 19.6481V11.9219L9.50449 4.35474L1.84631 11.9219ZM8.07053 16.2634H4.53272V13.0044H8.07053V16.2634Z" fill="#050336"/>
<path d="M18.7041 9.14367L9.50035 0L5.15844 4.31337V2.41515C5.15844 1.97172 4.79621 1.61184 4.34989 1.61184C3.90357 1.61184 3.54134 1.97172 3.54134 2.41515V5.91999L0.296232 9.14367C-0.0987441 9.53609 -0.0987441 10.1719 0.296232 10.5639C0.493518 10.7599 0.752254 10.8579 1.01099 10.8579C1.26973 10.8579 1.52806 10.7599 1.72575 10.5643L9.50076 2.8405L17.275 10.5639C17.6699 10.9563 18.3095 10.9563 18.7041 10.5639C19.0986 10.1715 19.0986 9.53569 18.7041 9.14367Z" fill="#050336"/>
</svg>
