<svg width="23" height="20" viewBox="0 0 23 20" fill="none" xmlns="http://www.w3.org/2000/svg">
<path d="M6.44444 10.6667C5.22222 10.6667 4.11111 11.1111 3.22222 12C2.33333 12.8889 1.77778 14.2222 1.77778 15.5556V16.3334C1.77778 17.1111 1.44444 17.6667 0.777778 17.8889C0.222222 18.1111 0 18.5556 0 19.1111C0.111111 19.6667 0.555556 20 1.11111 20H6.11111C7.44444 20 8.66667 19.4445 9.55556 18.5556C10.4444 17.6667 10.8889 16.4445 10.8889 15.2222C10.8889 12.7778 8.88889 10.7778 6.44444 10.6667Z" fill="#050336"/>
<path d="M21.4445 0.666667C20.5556 -0.222222 19.1112 -0.222222 18.2223 0.666667L9.00006 9C10.7778 9.77778 12.2223 11.3333 12.889 13.2222L21.5556 3.88889C22.3334 3 22.3334 1.55556 21.4445 0.666667Z" fill="#050336"/>
</svg>
