<svg width="29" height="20" viewBox="0 0 29 20" fill="none" xmlns="http://www.w3.org/2000/svg">
<path d="M27.6332 18.4832L2.12346 0.261209C1.34173 -0.297146 0 0.0986944 0 0.890422V2.428H2.04171C2.27378 2.428 2.49635 2.49385 2.66044 2.61107C2.82454 2.72828 2.91673 2.88727 2.91673 3.05304C2.91673 3.21881 2.82454 3.37779 2.66044 3.49501C2.49635 3.61223 2.27378 3.67808 2.04171 3.67808H0V4.73232H1.16669C1.39876 4.73232 1.62133 4.79817 1.78543 4.91539C1.94952 5.03261 2.04171 5.19159 2.04171 5.35736C2.04171 5.52313 1.94952 5.68211 1.78543 5.79933C1.62133 5.91655 1.39876 5.9824 1.16669 5.9824H0V7.03665H1.16669C1.39876 7.03665 1.62133 7.1025 1.78543 7.21972C1.94952 7.33694 2.04171 7.49592 2.04171 7.66169C2.04171 7.82746 1.94952 7.98644 1.78543 8.10366C1.62133 8.22088 1.39876 8.28673 1.16669 8.28673H0V9.34098H2.04171C2.27378 9.34098 2.49635 9.40683 2.66044 9.52405C2.82454 9.64126 2.91673 9.80025 2.91673 9.96602C2.91673 10.1318 2.82454 10.2908 2.66044 10.408C2.49635 10.5252 2.27378 10.5911 2.04171 10.5911H0V11.6411H1.16669C1.39876 11.6411 1.62133 11.707 1.78543 11.8242C1.94952 11.9414 2.04171 12.1004 2.04171 12.2662C2.04171 12.4319 1.94952 12.5909 1.78543 12.7081C1.62133 12.8254 1.39876 12.8912 1.16669 12.8912H0V13.9455H1.16669C1.39876 13.9455 1.62133 14.0113 1.78543 14.1286C1.94952 14.2458 2.04171 14.4048 2.04171 14.5705C2.04171 14.7363 1.94952 14.8953 1.78543 15.0125C1.62133 15.1297 1.39876 15.1956 1.16669 15.1956H0V16.2498H2.04171C2.27378 16.2498 2.49635 16.3156 2.66044 16.4328C2.82454 16.55 2.91673 16.709 2.91673 16.8748C2.91673 17.0406 2.82454 17.1996 2.66044 17.3168C2.49635 17.434 2.27378 17.4998 2.04171 17.4998H0V19.1124C0.000287779 19.3478 0.131299 19.5734 0.364271 19.7398C0.597244 19.9062 0.913137 19.9998 1.2426 20H3.50008V18.5416C3.50008 18.3758 3.59227 18.2168 3.75637 18.0996C3.92046 17.9824 4.14303 17.9165 4.3751 17.9165C4.60717 17.9165 4.82973 17.9824 4.99383 18.0996C5.15793 18.2168 5.25012 18.3758 5.25012 18.5416V20H6.72601V19.1666C6.72601 19.0008 6.81819 18.8419 6.98229 18.7246C7.14639 18.6074 7.36896 18.5416 7.60103 18.5416C7.8331 18.5416 8.05566 18.6074 8.21976 18.7246C8.38386 18.8419 8.47605 19.0008 8.47605 19.1666V20H9.95193V19.1666C9.95193 19.0008 10.0441 18.8419 10.2082 18.7246C10.3723 18.6074 10.5949 18.5416 10.827 18.5416C11.059 18.5416 11.2816 18.6074 11.4457 18.7246C11.6098 18.8419 11.702 19.0008 11.702 19.1666V20H13.1779V18.5416C13.1779 18.3758 13.27 18.2168 13.4341 18.0996C13.5982 17.9824 13.8208 17.9165 14.0529 17.9165C14.2849 17.9165 14.5075 17.9824 14.6716 18.0996C14.8357 18.2168 14.9279 18.3758 14.9279 18.5416V20H16.4038V19.1666C16.4038 19.0008 16.496 18.8419 16.6601 18.7246C16.8242 18.6074 17.0467 18.5416 17.2788 18.5416C17.5109 18.5416 17.7334 18.6074 17.8975 18.7246C18.0616 18.8419 18.1538 19.0008 18.1538 19.1666V20H19.6239V19.1666C19.6239 19.0008 19.716 18.8419 19.8801 18.7246C20.0442 18.6074 20.2668 18.5416 20.4989 18.5416C20.7309 18.5416 20.9535 18.6074 21.1176 18.7246C21.2817 18.8419 21.3739 19.0008 21.3739 19.1666V20H22.8498V18.5416C22.8498 18.3758 22.942 18.2168 23.1061 18.0996C23.2702 17.9824 23.4927 17.9165 23.7248 17.9165C23.9569 17.9165 24.1794 17.9824 24.3435 18.0996C24.5076 18.2168 24.5998 18.3758 24.5998 18.5416V20H26.7582C27.8665 20 28.4208 19.0458 27.6332 18.4832ZM7.00016 14.9997V9.56601L14.607 14.9997L7.00016 14.9997Z" fill="#050336"/>
</svg>
