<svg width="28" height="22" viewBox="0 0 28 22" fill="none" xmlns="http://www.w3.org/2000/svg">
<path fill-rule="evenodd" clip-rule="evenodd" d="M9.83765 8C12.0468 8 13.8376 6.20914 13.8376 4C13.8376 1.79086 12.0468 0 9.83765 0C7.62851 0 5.83765 1.79086 5.83765 4C5.83765 6.20914 7.62851 8 9.83765 8ZM9.83765 22C12.0468 22 13.8376 20.2091 13.8376 18C13.8376 15.7909 12.0468 14 9.83765 14C7.62851 14 5.83765 15.7909 5.83765 18C5.83765 20.2091 7.62851 22 9.83765 22ZM27.8376 4C27.8376 6.20914 26.0468 8 23.8376 8C21.6285 8 19.8376 6.20914 19.8376 4C19.8376 1.79086 21.6285 0 23.8376 0C26.0468 0 27.8376 1.79086 27.8376 4ZM23.8376 22C26.0468 22 27.8376 20.2091 27.8376 18C27.8376 15.7909 26.0468 14 23.8376 14C21.6285 14 19.8376 15.7909 19.8376 18C19.8376 20.2091 21.6285 22 23.8376 22Z" fill="#050336"/>
</svg>
