<svg width="29" height="20" viewBox="0 0 29 20" fill="none" xmlns="http://www.w3.org/2000/svg">
<path d="M14.0098 0C4.95795 0 0.501199 8.98571 0.321269 9.35714L0.00292969 10L0.307428 10.6429C0.501199 11.0143 4.95795 20 14.0098 20C23.0618 20 27.5185 11.0143 27.6984 10.6429L28.0029 10L27.6984 9.35714C27.5185 8.98571 23.0618 0 14.0098 0ZM14.0098 17.1429C7.94757 17.1429 4.32127 11.8571 3.1448 10C4.32127 8.14286 7.94757 2.85714 14.0098 2.85714C20.0721 2.85714 23.6984 8.14286 24.8749 10C23.6984 11.8571 20.0721 17.1429 14.0098 17.1429Z" fill="#050336"/>
<path d="M14.0097 4.28577C12.9147 4.28577 11.8443 4.6209 10.9339 5.2488C10.0235 5.87669 9.31385 6.76914 8.89482 7.81329C8.47579 8.85744 8.36615 10.0064 8.57977 11.1149C8.79339 12.2233 9.32068 13.2415 10.0949 14.0407C10.8692 14.8398 11.8557 15.3841 12.9296 15.6045C14.0036 15.825 15.1168 15.7119 16.1284 15.2794C17.14 14.8469 18.0047 14.1144 18.613 13.1747C19.2214 12.235 19.5461 11.1302 19.5461 10.0001C19.5461 8.48453 18.9628 7.03108 17.9245 5.95944C16.8862 4.88781 15.4781 4.28577 14.0097 4.28577ZM14.0097 12.8572C13.4622 12.8572 12.927 12.6896 12.4718 12.3757C12.0166 12.0617 11.6618 11.6155 11.4523 11.0934C11.2428 10.5714 11.1879 9.99688 11.2947 9.44265C11.4016 8.88842 11.6652 8.37933 12.0523 7.97975C12.4395 7.58017 12.9327 7.30805 13.4697 7.19781C14.0067 7.08756 14.5632 7.14415 15.0691 7.3604C15.5749 7.57665 16.0072 7.94285 16.3114 8.41271C16.6155 8.88256 16.7779 9.43496 16.7779 10.0001C16.7779 10.7578 16.4862 11.4845 15.9671 12.0204C15.448 12.5562 14.7439 12.8572 14.0097 12.8572Z" fill="#050336"/>
</svg>
