<svg width="203" height="150" viewBox="0 0 203 150" fill="none" xmlns="http://www.w3.org/2000/svg">
<path fill-rule="evenodd" clip-rule="evenodd" d="M185.294 150H17.6471C7.90147 150 0 142.099 0 132.353V35.2941C0 25.5485 7.90147 17.6471 17.6471 17.6471H22.0588C22.0588 12.7765 26.0118 8.82353 30.8824 8.82353H39.7059C44.5765 8.82353 48.5294 12.7765 48.5294 17.6471H57.3529C57.3529 17.6471 62.3162 17.0956 66.1765 13.2353L75 4.41176C75 4.41176 78.4456 0 83.8235 0H119.118C124.906 0 127.941 4.41176 127.941 4.41176L136.765 13.2353C140.625 17.0956 145.588 17.6471 145.588 17.6471H185.294C195.04 17.6471 202.941 25.5485 202.941 35.2941V132.353C202.941 142.099 195.04 150 185.294 150ZM194.118 35.2941C194.118 30.4235 190.165 26.4706 185.294 26.4706L144.613 26.4132C143.268 26.2676 136.279 25.2265 130.526 19.4735L121.129 10.0765L120.671 9.4103C120.671 9.4103 119.982 8.82353 119.118 8.82353H83.8235C83.1485 8.82353 82.1691 9.60882 81.9529 9.84265L81.6221 10.2662L72.4147 19.4691C66.6573 25.2265 59.6691 26.2632 58.3279 26.4088L40.0147 26.4353C39.9088 26.4441 39.8074 26.4706 39.7059 26.4706H30.8824C30.8206 26.4706 30.7676 26.4529 30.7059 26.4529L17.6471 26.4706C12.7765 26.4706 8.82353 30.4235 8.82353 35.2941V132.353C8.82353 137.224 12.7765 141.176 17.6471 141.176H185.294C190.165 141.176 194.118 137.224 194.118 132.353V35.2941ZM101.471 132.353C74.6691 132.353 52.9412 110.625 52.9412 83.8235C52.9412 57.0221 74.6691 35.2941 101.471 35.2941C128.272 35.2941 150 57.0221 150 83.8235C150 110.625 128.272 132.353 101.471 132.353ZM101.471 44.1176C79.5397 44.1176 61.7647 61.8926 61.7647 83.8235C61.7647 105.754 79.5397 123.529 101.471 123.529C123.401 123.529 141.176 105.754 141.176 83.8235C141.176 61.8926 123.401 44.1176 101.471 44.1176ZM101.471 105.882C89.2853 105.882 79.4118 96.0088 79.4118 83.8235C79.4118 71.6382 89.2853 61.7647 101.471 61.7647C113.656 61.7647 123.529 71.6382 123.529 83.8235C123.529 96.0088 113.656 105.882 101.471 105.882ZM101.471 70.5882C94.1647 70.5882 88.2353 76.5176 88.2353 83.8235C88.2353 91.1338 94.1647 97.0588 101.471 97.0588C108.781 97.0588 114.706 91.1338 114.706 83.8235C114.706 76.5176 108.781 70.5882 101.471 70.5882ZM39.7059 52.9412H22.0588C19.6191 52.9412 17.6471 50.9691 17.6471 48.5294V39.7059C17.6471 37.2706 19.6191 35.2941 22.0588 35.2941H39.7059C42.1456 35.2941 44.1176 37.2706 44.1176 39.7059V48.5294C44.1176 50.9691 42.1456 52.9412 39.7059 52.9412Z" fill="white"/>
</svg>
