<svg width="135" height="150" viewBox="0 0 135 150" fill="none" xmlns="http://www.w3.org/2000/svg">
<path d="M67.8516 95.8301L85.6186 126.949L121.839 117.45V140.341L67.8516 150V95.8301Z" fill="#924B35"/>
<path d="M71.7945 102.736L67.8516 95.8301V150L71.7945 149.294V102.736Z" fill="#723529"/>
<path d="M67.8502 95.8301V150L13.1719 140.341V117.45L49.3927 126.949L67.8502 95.8301Z" fill="#924B35"/>
<path d="M14.9889 121.483L51.2098 130.983L67.8502 102.927V95.8301L49.3927 126.949L13.1719 117.45V140.341L14.9889 140.661V121.483Z" fill="#7F3F2E"/>
<path d="M49.3907 44.627L67.8482 73.656L13.646 84.7293L0 54.5044L49.3907 44.627Z" fill="#FFC592"/>
<path d="M5.45111 57.618L51.7623 48.357L49.3907 44.627L0 54.5044L13.646 84.7293L17.3498 83.9724L5.45111 57.618Z" fill="#EFA873"/>
<path d="M135.009 54.5044L122.021 84.7293L67.8516 73.656L85.6186 44.627L135.009 54.5044Z" fill="#FFC592"/>
<path d="M87.4356 48.5336L133.607 57.7674L135.009 54.5044L85.6186 44.627L67.8516 73.656L71.5918 74.4206L87.4356 48.5336Z" fill="#EFA873"/>
<path d="M85.6186 126.949L67.8516 95.8303L122.021 84.7285L135.009 113.997L121.839 117.45L85.6186 126.949Z" fill="#FFC592"/>
<path d="M73.0301 98.465L123.524 88.1162L122.021 84.7285L67.8516 95.8303L85.6186 126.949L88.8144 126.111L73.0301 98.465Z" fill="#EFA873"/>
<path d="M67.8482 95.8303L49.3907 126.949L13.1699 117.45L0 113.997L13.646 84.7285L67.8482 95.8303Z" fill="#FFC592"/>
<path d="M15.4634 88.6351L65.9792 98.9817L67.8482 95.8303L13.646 84.7285L0 113.997L3.24232 114.847L15.4634 88.6351Z" fill="#EFA873"/>
<path d="M122.02 84.7296L67.8507 95.8314L13.6484 84.7296L67.8507 73.6562L122.02 84.7296Z" fill="#E5A070"/>
<path d="M69.0314 77.1998L113.954 86.3824L122.02 84.7296L67.8507 73.6562L13.6484 84.7296L22.8986 86.6241L69.0314 77.1998Z" fill="#D89364"/>
<path d="M98.7858 26.685C97.7821 26.685 96.9688 25.8714 96.9688 24.868V1.81704C96.9688 0.81367 97.7821 0 98.7858 0C99.7895 0 100.603 0.81367 100.603 1.81704V24.868C100.603 25.8717 99.7895 26.685 98.7858 26.685Z" fill="#FFC592"/>
<path d="M111.958 36.5615C110.954 36.5615 110.141 35.7478 110.141 34.7444V8.40102C110.141 7.39765 110.954 6.58398 111.958 6.58398C112.961 6.58398 113.775 7.39765 113.775 8.40102V34.7444C113.775 35.7482 112.961 36.5615 111.958 36.5615Z" fill="#FFC592"/>
<path d="M125.13 16.8076C124.126 16.8076 123.312 15.9939 123.312 14.9906V1.81704C123.312 0.81367 124.126 0 125.13 0C126.133 0 126.947 0.81367 126.947 1.81704V14.9906C126.947 15.9939 126.133 16.8076 125.13 16.8076Z" fill="#FFC592"/>
<path d="M36.2233 26.685C35.2199 26.685 34.4062 25.8714 34.4062 24.868V1.81704C34.4062 0.81367 35.2199 0 36.2233 0C37.2267 0 38.0403 0.81367 38.0403 1.81704V24.868C38.0403 25.8717 37.2267 26.685 36.2233 26.685Z" fill="#FFC592"/>
<path d="M23.0436 36.5615C22.0402 36.5615 21.2266 35.7478 21.2266 34.7444V8.40102C21.2266 7.39765 22.0402 6.58398 23.0436 6.58398C24.047 6.58398 24.8606 7.39765 24.8606 8.40102V34.7444C24.8606 35.7482 24.047 36.5615 23.0436 36.5615Z" fill="#FFC592"/>
<path d="M9.87954 16.8076C8.87617 16.8076 8.0625 15.9939 8.0625 14.9906V1.81704C8.0625 0.81367 8.87617 0 9.87954 0C10.8829 0 11.6966 0.81367 11.6966 1.81704V14.9906C11.6966 15.9939 10.8829 16.8076 9.87954 16.8076Z" fill="#FFC592"/>
<path d="M80.8396 114.848C80.0255 114.848 79.2846 114.297 79.0782 113.471C78.8347 112.497 79.4267 111.511 80.4002 111.268L119.917 101.391C120.891 101.147 121.878 101.739 122.121 102.713C122.364 103.687 121.772 104.673 120.798 104.916L81.2815 114.793C81.1339 114.83 80.9853 114.848 80.8396 114.848Z" fill="#EFA873"/>
</svg>
